<?xml version="1.0" encoding="UTF-8" standalone="no"?><!-- Generator: Gravit.io --><svg xmlns="http://www.w3.org/2000/svg" xmlns:xlink="http://www.w3.org/1999/xlink" style="isolation:isolate" viewBox="1331.902 215 170.033 300" width="170.033pt" height="300pt"><linearGradient id="_lgradient_6" x1="0.43678160919540243" y1="0.6286644951140065" x2="1.057471264367816" y2="-0.11400651465798062" gradientTransform="matrix(170.033,0,0,300,1331.902,215)" gradientUnits="userSpaceOnUse"><stop offset="0%" stop-opacity="1" style="stop-color:rgb(0,0,0)"/><stop offset="100%" stop-opacity="1" style="stop-color:rgb(103,183,224)"/></linearGradient><path d=" M 1442.895 335.471 C 1464.738 325.562 1479.948 303.558 1479.948 278.029 C 1479.948 243.242 1451.705 215 1416.919 215 C 1382.132 215 1353.889 243.242 1353.889 278.029 L 1353.889 278.029 L 1353.889 278.029 L 1353.889 278.029 C 1353.889 303.558 1369.099 325.562 1390.942 335.471 C 1389.73 338.452 1388.87 341.646 1388.425 344.964 L 1387.704 350.342 L 1378.92 350.342 L 1378.92 350.342 L 1378.92 350.342 L 1378.92 350.342 C 1371.577 350.342 1365.616 354.392 1365.616 359.381 L 1365.616 359.381 C 1365.616 364.37 1371.577 368.42 1378.92 368.42 L 1385.279 368.42 L 1384.558 373.795 L 1378.92 373.795 L 1378.92 373.795 L 1378.92 373.795 C 1371.577 373.795 1365.616 377.845 1365.616 382.834 L 1365.616 382.834 C 1365.616 387.823 1371.577 391.873 1378.92 391.873 L 1382.133 391.873 L 1372.973 460.151 L 1361.733 460.151 L 1361.733 460.151 C 1345.269 460.151 1331.902 472.439 1331.902 487.575 L 1331.902 487.575 C 1331.902 502.711 1345.269 515 1361.733 515 L 1396.176 515 L 1396.176 515 L 1437.661 515 L 1437.661 515 L 1472.104 515 C 1488.568 515 1501.935 502.711 1501.935 487.575 L 1501.935 487.575 C 1501.935 472.439 1488.568 460.151 1472.104 460.151 L 1460.864 460.151 L 1451.704 391.873 L 1454.917 391.873 C 1462.26 391.873 1468.221 387.823 1468.221 382.834 L 1468.221 382.834 C 1468.221 377.845 1462.26 373.795 1454.917 373.795 L 1449.279 373.795 L 1448.558 368.42 L 1454.917 368.42 C 1462.26 368.42 1468.221 364.37 1468.221 359.381 L 1468.221 359.381 C 1468.221 354.392 1462.26 350.342 1454.917 350.342 L 1446.133 350.342 L 1445.412 344.964 C 1444.967 341.646 1444.107 338.452 1442.895 335.471 Z " fill-rule="evenodd" fill="url(#_lgradient_6)"/></svg>