<?xml version="1.0" encoding="UTF-8" standalone="no"?><!-- Generator: Gravit.io --><svg xmlns="http://www.w3.org/2000/svg" xmlns:xlink="http://www.w3.org/1999/xlink" style="isolation:isolate" viewBox="716.267 215 170.033 300" width="170.033pt" height="300pt"><linearGradient id="_lgradient_3" x1="0.43678160919540243" y1="0.6286644951140065" x2="1.057471264367816" y2="-0.11400651465798062" gradientTransform="matrix(170.033,0,0,300,716.267,215)" gradientUnits="userSpaceOnUse"><stop offset="0%" stop-opacity="1" style="stop-color:rgb(0,0,0)"/><stop offset="100%" stop-opacity="1" style="stop-color:rgb(143,224,103)"/></linearGradient><path d=" M 827.26 335.471 C 849.103 325.562 864.313 303.558 864.313 278.029 C 864.313 243.242 836.07 215 801.283 215 C 766.497 215 738.254 243.242 738.254 278.029 L 738.254 278.029 L 738.254 278.029 L 738.254 278.029 C 738.254 303.558 753.464 325.562 775.306 335.471 C 774.095 338.452 773.235 341.646 772.79 344.964 L 772.069 350.342 L 763.284 350.342 L 763.284 350.342 L 763.284 350.342 L 763.284 350.342 C 755.942 350.342 749.98 354.392 749.98 359.381 L 749.98 359.381 C 749.98 364.37 755.942 368.42 763.284 368.42 L 769.644 368.42 L 768.923 373.795 L 763.284 373.795 L 763.284 373.795 L 763.284 373.795 C 755.942 373.795 749.98 377.845 749.98 382.834 L 749.98 382.834 C 749.98 387.823 755.942 391.873 763.284 391.873 L 766.497 391.873 L 757.338 460.151 L 746.098 460.151 L 746.098 460.151 C 729.634 460.151 716.267 472.439 716.267 487.575 L 716.267 487.575 C 716.267 502.711 729.634 515 746.098 515 L 780.541 515 L 780.541 515 L 822.026 515 L 822.026 515 L 856.468 515 C 872.933 515 886.3 502.711 886.3 487.575 L 886.3 487.575 C 886.3 472.439 872.933 460.151 856.468 460.151 L 845.228 460.151 L 836.069 391.873 L 839.282 391.873 C 846.625 391.873 852.586 387.823 852.586 382.834 L 852.586 382.834 C 852.586 377.845 846.625 373.795 839.282 373.795 L 833.644 373.795 L 832.923 368.42 L 839.282 368.42 C 846.625 368.42 852.586 364.37 852.586 359.381 L 852.586 359.381 C 852.586 354.392 846.625 350.342 839.282 350.342 L 830.498 350.342 L 829.777 344.964 C 829.331 341.646 828.472 338.452 827.26 335.471 Z " fill-rule="evenodd" fill="url(#_lgradient_3)"/></svg>