<?xml version="1.0" encoding="UTF-8" standalone="no"?><!-- Generator: Gravit.io --><svg xmlns="http://www.w3.org/2000/svg" xmlns:xlink="http://www.w3.org/1999/xlink" style="isolation:isolate" viewBox="1126.691 215 170.033 300" width="170.033pt" height="300pt"><linearGradient id="_lgradient_5" x1="0.43678160919540243" y1="0.6286644951140065" x2="1.057471264367816" y2="-0.11400651465798062" gradientTransform="matrix(170.033,0,0,300,1126.691,215)" gradientUnits="userSpaceOnUse"><stop offset="0%" stop-opacity="1" style="stop-color:rgb(0,0,0)"/><stop offset="100%" stop-opacity="1" style="stop-color:rgb(128,128,128)"/></linearGradient><path d=" M 1237.684 335.471 C 1259.526 325.562 1274.736 303.558 1274.736 278.029 C 1274.736 243.242 1246.494 215 1211.707 215 C 1176.92 215 1148.678 243.242 1148.678 278.029 L 1148.678 278.029 L 1148.678 278.029 L 1148.678 278.029 C 1148.678 303.558 1163.888 325.562 1185.73 335.471 C 1184.518 338.452 1183.659 341.646 1183.214 344.964 L 1182.492 350.342 L 1173.708 350.342 L 1173.708 350.342 L 1173.708 350.342 L 1173.708 350.342 C 1166.365 350.342 1160.404 354.392 1160.404 359.381 L 1160.404 359.381 C 1160.404 364.37 1166.365 368.42 1173.708 368.42 L 1180.067 368.42 L 1179.346 373.795 L 1173.708 373.795 L 1173.708 373.795 L 1173.708 373.795 C 1166.365 373.795 1160.404 377.845 1160.404 382.834 L 1160.404 382.834 C 1160.404 387.823 1166.365 391.873 1173.708 391.873 L 1176.921 391.873 L 1167.762 460.151 L 1156.522 460.151 L 1156.522 460.151 C 1140.057 460.151 1126.691 472.439 1126.691 487.575 L 1126.691 487.575 C 1126.691 502.711 1140.057 515 1156.522 515 L 1190.965 515 L 1190.965 515 L 1232.449 515 L 1232.449 515 L 1266.892 515 C 1283.356 515 1296.723 502.711 1296.723 487.575 L 1296.723 487.575 C 1296.723 472.439 1283.356 460.151 1266.892 460.151 L 1255.652 460.151 L 1246.493 391.873 L 1249.706 391.873 C 1257.048 391.873 1263.01 387.823 1263.01 382.834 L 1263.01 382.834 C 1263.01 377.845 1257.048 373.795 1249.706 373.795 L 1244.068 373.795 L 1243.347 368.42 L 1249.706 368.42 C 1257.048 368.42 1263.01 364.37 1263.01 359.381 L 1263.01 359.381 C 1263.01 354.392 1257.048 350.342 1249.706 350.342 L 1240.922 350.342 L 1240.2 344.964 C 1239.755 341.646 1238.895 338.452 1237.684 335.471 Z " fill-rule="evenodd" fill="url(#_lgradient_5)"/></svg>