<?xml version="1.0" encoding="UTF-8" standalone="no"?><!-- Generator: Gravit.io --><svg xmlns="http://www.w3.org/2000/svg" xmlns:xlink="http://www.w3.org/1999/xlink" style="isolation:isolate" viewBox="491.511 215 170.033 300" width="170.033pt" height="300pt"><linearGradient id="_lgradient_2" x1="0.43678160919540243" y1="0.6286644951140065" x2="1.057471264367816" y2="-0.11400651465798062" gradientTransform="matrix(170.033,0,0,300,491.511,215)" gradientUnits="userSpaceOnUse"><stop offset="0%" stop-opacity="1" style="stop-color:rgb(0,0,0)"/><stop offset="100%" stop-opacity="1" style="stop-color:rgb(220,103,224)"/></linearGradient><path d=" M 602.505 335.471 C 624.347 325.562 639.557 303.558 639.557 278.029 C 639.557 243.242 611.315 215 576.528 215 C 541.741 215 513.498 243.242 513.498 278.029 L 513.498 278.029 L 513.498 278.029 L 513.498 278.029 C 513.498 303.558 528.709 325.562 550.551 335.471 C 549.339 338.452 548.48 341.646 548.035 344.964 L 547.313 350.342 L 538.529 350.342 L 538.529 350.342 L 538.529 350.342 L 538.529 350.342 C 531.186 350.342 525.225 354.392 525.225 359.381 L 525.225 359.381 C 525.225 364.37 531.186 368.42 538.529 368.42 L 544.888 368.42 L 544.167 373.795 L 538.529 373.795 L 538.529 373.795 L 538.529 373.795 C 531.186 373.795 525.225 377.845 525.225 382.834 L 525.225 382.834 C 525.225 387.823 531.186 391.873 538.529 391.873 L 541.742 391.873 L 532.583 460.151 L 521.343 460.151 L 521.343 460.151 C 504.878 460.151 491.511 472.439 491.511 487.575 L 491.511 487.575 C 491.511 502.711 504.878 515 521.343 515 L 555.786 515 L 555.786 515 L 597.27 515 L 597.27 515 L 631.713 515 C 648.177 515 661.544 502.711 661.544 487.575 L 661.544 487.575 C 661.544 472.439 648.177 460.151 631.713 460.151 L 620.473 460.151 L 611.314 391.873 L 614.527 391.873 C 621.869 391.873 627.831 387.823 627.831 382.834 L 627.831 382.834 C 627.831 377.845 621.869 373.795 614.527 373.795 L 608.888 373.795 L 608.167 368.42 L 614.527 368.42 C 621.869 368.42 627.831 364.37 627.831 359.381 L 627.831 359.381 C 627.831 354.392 621.869 350.342 614.527 350.342 L 605.742 350.342 L 605.021 344.964 C 604.576 341.646 603.716 338.452 602.505 335.471 Z " fill-rule="evenodd" fill="url(#_lgradient_2)"/></svg>