<?xml version="1.0" encoding="UTF-8" standalone="no"?><!-- Generator: Gravit.io --><svg xmlns="http://www.w3.org/2000/svg" xmlns:xlink="http://www.w3.org/1999/xlink" style="isolation:isolate" viewBox="42 215 170.033 300" width="170.033pt" height="300pt"><linearGradient id="_lgradient_0" x1="0.43678160919540243" y1="0.6286644951140065" x2="1.057471264367816" y2="-0.11400651465798062" gradientTransform="matrix(170.033,0,0,300,42,215)" gradientUnits="userSpaceOnUse"><stop offset="0%" stop-opacity="1" style="stop-color:rgb(0,0,0)"/><stop offset="100%" stop-opacity="1" style="stop-color:rgb(151,155,221)"/></linearGradient><path d=" M 152.993 335.471 C 174.835 325.562 190.046 303.558 190.046 278.029 C 190.046 243.242 161.803 215 127.016 215 C 92.229 215 63.987 243.242 63.987 278.029 L 63.987 278.029 L 63.987 278.029 L 63.987 278.029 C 63.987 303.558 79.197 325.562 101.039 335.471 C 99.828 338.452 98.968 341.646 98.523 344.964 L 97.802 350.342 L 89.017 350.342 L 89.017 350.342 L 89.017 350.342 L 89.017 350.342 C 81.675 350.342 75.713 354.392 75.713 359.381 L 75.713 359.381 C 75.713 364.37 81.675 368.42 89.017 368.42 L 95.377 368.42 L 94.656 373.795 L 89.017 373.795 L 89.017 373.795 L 89.017 373.795 C 81.675 373.795 75.713 377.845 75.713 382.834 L 75.713 382.834 C 75.713 387.823 81.675 391.873 89.017 391.873 L 92.23 391.873 L 83.071 460.151 L 71.831 460.151 L 71.831 460.151 C 55.367 460.151 42 472.439 42 487.575 L 42 487.575 C 42 502.711 55.367 515 71.831 515 L 106.274 515 L 106.274 515 L 147.758 515 L 147.758 515 L 182.201 515 C 198.666 515 212.033 502.711 212.033 487.575 L 212.033 487.575 C 212.033 472.439 198.666 460.151 182.201 460.151 L 170.961 460.151 L 161.802 391.873 L 165.015 391.873 C 172.358 391.873 178.319 387.823 178.319 382.834 L 178.319 382.834 C 178.319 377.845 172.358 373.795 165.015 373.795 L 159.377 373.795 L 158.656 368.42 L 165.015 368.42 C 172.358 368.42 178.319 364.37 178.319 359.381 L 178.319 359.381 C 178.319 354.392 172.358 350.342 165.015 350.342 L 156.231 350.342 L 155.509 344.964 C 155.064 341.646 154.205 338.452 152.993 335.471 Z " fill-rule="evenodd" fill="url(#_lgradient_0)"/></svg>