<?xml version="1.0" encoding="UTF-8" standalone="no"?><!-- Generator: Gravit.io --><svg xmlns="http://www.w3.org/2000/svg" xmlns:xlink="http://www.w3.org/1999/xlink" style="isolation:isolate" viewBox="921.479 215 170.033 300" width="170.033pt" height="300pt"><linearGradient id="_lgradient_4" x1="0.43678160919540243" y1="0.6286644951140065" x2="1.057471264367816" y2="-0.11400651465798062" gradientTransform="matrix(170.033,0,0,300,921.479,215)" gradientUnits="userSpaceOnUse"><stop offset="0%" stop-opacity="1" style="stop-color:rgb(0,0,0)"/><stop offset="100%" stop-opacity="1" style="stop-color:rgb(224,103,103)"/></linearGradient><path d=" M 1032.472 335.471 C 1054.314 325.562 1069.524 303.558 1069.524 278.029 C 1069.524 243.242 1041.282 215 1006.495 215 C 971.708 215 943.466 243.242 943.466 278.029 L 943.466 278.029 L 943.466 278.029 L 943.466 278.029 C 943.466 303.558 958.676 325.562 980.518 335.471 C 979.307 338.452 978.447 341.646 978.002 344.964 L 977.28 350.342 L 968.496 350.342 L 968.496 350.342 L 968.496 350.342 L 968.496 350.342 C 961.154 350.342 955.192 354.392 955.192 359.381 L 955.192 359.381 C 955.192 364.37 961.154 368.42 968.496 368.42 L 974.855 368.42 L 974.134 373.795 L 968.496 373.795 L 968.496 373.795 L 968.496 373.795 C 961.154 373.795 955.192 377.845 955.192 382.834 L 955.192 382.834 C 955.192 387.823 961.154 391.873 968.496 391.873 L 971.709 391.873 L 962.55 460.151 L 951.31 460.151 L 951.31 460.151 C 934.846 460.151 921.479 472.439 921.479 487.575 L 921.479 487.575 C 921.479 502.711 934.846 515 951.31 515 L 985.753 515 L 985.753 515 L 1027.237 515 L 1027.237 515 L 1061.68 515 C 1078.144 515 1091.511 502.711 1091.511 487.575 L 1091.511 487.575 C 1091.511 472.439 1078.144 460.151 1061.68 460.151 L 1050.44 460.151 L 1041.281 391.873 L 1044.494 391.873 C 1051.837 391.873 1057.798 387.823 1057.798 382.834 L 1057.798 382.834 C 1057.798 377.845 1051.837 373.795 1044.494 373.795 L 1038.856 373.795 L 1038.135 368.42 L 1044.494 368.42 C 1051.837 368.42 1057.798 364.37 1057.798 359.381 L 1057.798 359.381 C 1057.798 354.392 1051.837 350.342 1044.494 350.342 L 1035.71 350.342 L 1034.988 344.964 C 1034.543 341.646 1033.683 338.452 1032.472 335.471 Z " fill-rule="evenodd" fill="url(#_lgradient_4)"/></svg>