<?xml version="1.0" encoding="UTF-8" standalone="no"?><!-- Generator: Gravit.io --><svg xmlns="http://www.w3.org/2000/svg" xmlns:xlink="http://www.w3.org/1999/xlink" style="isolation:isolate" viewBox="266.756 215 170.033 300" width="170.033pt" height="300pt"><linearGradient id="_lgradient_1" x1="0.43678160919540243" y1="0.6286644951140065" x2="1.057471264367816" y2="-0.11400651465798062" gradientTransform="matrix(170.033,0,0,300,266.756,215)" gradientUnits="userSpaceOnUse"><stop offset="0%" stop-opacity="1" style="stop-color:rgb(0,0,0)"/><stop offset="100%" stop-opacity="1" style="stop-color:rgb(206,154,95)"/></linearGradient><path d=" M 377.749 335.471 C 399.591 325.562 414.801 303.558 414.801 278.029 C 414.801 243.242 386.559 215 351.772 215 C 316.985 215 288.743 243.242 288.743 278.029 L 288.743 278.029 L 288.743 278.029 L 288.743 278.029 C 288.743 303.558 303.953 325.562 325.795 335.471 C 324.584 338.452 323.724 341.646 323.279 344.964 L 322.557 350.342 L 313.773 350.342 L 313.773 350.342 L 313.773 350.342 L 313.773 350.342 C 306.43 350.342 300.469 354.392 300.469 359.381 L 300.469 359.381 C 300.469 364.37 306.43 368.42 313.773 368.42 L 320.132 368.42 L 319.411 373.795 L 313.773 373.795 L 313.773 373.795 L 313.773 373.795 C 306.43 373.795 300.469 377.845 300.469 382.834 L 300.469 382.834 C 300.469 387.823 306.43 391.873 313.773 391.873 L 316.986 391.873 L 307.827 460.151 L 296.587 460.151 L 296.587 460.151 C 280.123 460.151 266.756 472.439 266.756 487.575 L 266.756 487.575 C 266.756 502.711 280.123 515 296.587 515 L 331.03 515 L 331.03 515 L 372.514 515 L 372.514 515 L 406.957 515 C 423.421 515 436.788 502.711 436.788 487.575 L 436.788 487.575 C 436.788 472.439 423.421 460.151 406.957 460.151 L 395.717 460.151 L 386.558 391.873 L 389.771 391.873 C 397.114 391.873 403.075 387.823 403.075 382.834 L 403.075 382.834 C 403.075 377.845 397.114 373.795 389.771 373.795 L 384.133 373.795 L 383.412 368.42 L 389.771 368.42 C 397.114 368.42 403.075 364.37 403.075 359.381 L 403.075 359.381 C 403.075 354.392 397.114 350.342 389.771 350.342 L 380.987 350.342 L 380.265 344.964 C 379.82 341.646 378.96 338.452 377.749 335.471 Z " fill-rule="evenodd" fill="url(#_lgradient_1)"/></svg>